<svg xmlns="http://www.w3.org/2000/svg" viewBox="0 0 125 125"><circle fill="none" stroke="#2F3B46" stroke-width="2.785" stroke-miterlimit="10" cx="62.5" cy="62.5" r="60"/><g fill="#38454B"><circle cx="61.5" cy="53" r="30.1"/><path d="M71.5 90.1H52c-1.4 0-2.6-1.2-2.6-2.6v-7.6c0-1.4 1.2-2.6 2.6-2.6h19.5c1.4 0 2.6 1.2 2.6 2.6v7.6c0 1.4-1.2 2.6-2.6 2.6zM71.5 97.6h-19c-1.4 0-2.6-1.2-2.6-2.6v-.1c0-1.4 1.2-2.6 2.6-2.6h19c1.4 0 2.6 1.2 2.6 2.6v.1c0 1.4-1.2 2.6-2.6 2.6zM66.3 103.4h-7.4c-1.1 0-1.9-.9-1.9-1.9 0-1.1.9-1.9 1.9-1.9h7.4c1.1 0 1.9.9 1.9 1.9 0 1-.9 1.9-1.9 1.9z"/></g></svg>