<?xml version="1.0" encoding="utf-8"?>
<!-- Generator: Adobe Illustrator 18.0.0, SVG Export Plug-In . SVG Version: 6.00 Build 0)  -->
<!DOCTYPE svg PUBLIC "-//W3C//DTD SVG 1.1//EN" "http://www.w3.org/Graphics/SVG/1.1/DTD/svg11.dtd">
<svg version="1.1" id="Capa_1" xmlns="http://www.w3.org/2000/svg" xmlns:xlink="http://www.w3.org/1999/xlink" x="0px" y="0px"
	 viewBox="0 0 125 125" enable-background="new 0 0 125 125" xml:space="preserve">
<g>
	<circle fill="none" stroke="#2F3B46" stroke-width="2.7848" stroke-miterlimit="10" cx="62.5" cy="62.5" r="60"/>
	<g>
		<circle fill="#2F3B46" cx="64.7" cy="45" r="14.9"/>
		<path fill="#2F3B46" d="M45.1,70.5l-14.4-8.6c-2.3-1.4-3.1-4.4-1.7-6.8l0,0c1.4-2.3,4.4-3.1,6.8-1.7L50.1,62
			c2.3,1.4,3.1,4.4,1.7,6.8l0,0C50.5,71.1,47.4,71.8,45.1,70.5z"/>
		<path fill="#2F3B46" d="M27.7,56.2L31,39.4c0.5-2.6,3-4.3,5.6-3.8l0.3,0.1c2.6,0.5,4.3,3,3.8,5.6l-3.3,16.8
			c-0.5,2.6-3,4.3-5.6,3.8l-0.3-0.1C28.9,61.3,27.2,58.8,27.7,56.2z"/>
		<path fill="#2F3B46" d="M83.7,69.5l14.4-8.6c2.3-1.4,3.1-4.4,1.7-6.8l0,0c-1.4-2.3-4.4-3.1-6.8-1.7l-14.4,8.6
			c-2.3,1.4-3.1,4.4-1.7,6.8l0,0C78.4,70.2,81.4,70.9,83.7,69.5z"/>
		<path fill="#2F3B46" d="M100.5,56L97.8,39c-0.4-2.6-2.9-4.4-5.4-3.9L92,35.1c-2.6,0.4-4.4,2.9-3.9,5.4l2.7,16.9
			c0.4,2.6,2.9,4.4,5.4,3.9l0.3-0.1C99.2,61,100.9,58.6,100.5,56z"/>
		<path fill="#2F3B46" d="M74.8,102H54.4c-4.8,0-8.8-4-8.8-8.8V70.2c0-4.8,4-8.8,8.8-8.8h20.5c4.8,0,8.8,4,8.8,8.8v23.1
			C83.6,98.1,79.7,102,74.8,102z"/>
	</g>
</g>
</svg>
