<?xml version="1.0" encoding="utf-8"?>
<!-- Generator: Adobe Illustrator 18.0.0, SVG Export Plug-In . SVG Version: 6.00 Build 0)  -->
<!DOCTYPE svg PUBLIC "-//W3C//DTD SVG 1.1//EN" "http://www.w3.org/Graphics/SVG/1.1/DTD/svg11.dtd">
<svg version="1.1" id="Capa_1" xmlns="http://www.w3.org/2000/svg" xmlns:xlink="http://www.w3.org/1999/xlink" x="0px" y="0px"
	 viewBox="0 0 125 125" enable-background="new 0 0 125 125" xml:space="preserve">
<g>
	<circle fill="none" stroke="#2F3B46" stroke-width="2.7848" stroke-miterlimit="10" cx="62.5" cy="62.5" r="60"/>
	<g>
		<path fill="#202931" d="M73.4,65.8c-2.7,2.8-6.5,4.6-10.7,4.6c-4,0-7.6-1.6-10.3-4.1C46.1,70,41.8,76.9,41.8,84.8
			c0,1.8,0.2,3.6,0.7,5.3c5.3,4.2,12.9,6.8,21.3,6.8c7.8,0,14.8-2.2,20-5.8c0.6-2,0.9-4.1,0.9-6.3C84.7,76.6,80.1,69.4,73.4,65.8z"
			/>
		<circle fill="#202931" cx="62.7" cy="55.3" r="14"/>
		<g>
			<polygon fill="#38454B" points="49.1,51.8 51.9,39.9 73.9,39.9 76.3,51.8 			"/>
			<polygon fill="#202931" points="40.1,61.4 40.5,55.7 44.3,55.7 44.6,61.4 			"/>
			<polygon fill="#202931" points="30.5,37.3 63,28.1 94.5,37.3 62.9,47.3 			"/>
			<rect x="41.6" y="35.3" fill="#202931" width="1.6" height="19.2"/>
			<ellipse fill="#202931" cx="42.4" cy="55.3" rx="1.9" ry="2.6"/>
		</g>
	</g>
</g>
</svg>
