<?xml version="1.0" encoding="utf-8"?>
<!-- Generator: Adobe Illustrator 18.0.0, SVG Export Plug-In . SVG Version: 6.00 Build 0)  -->
<!DOCTYPE svg PUBLIC "-//W3C//DTD SVG 1.1//EN" "http://www.w3.org/Graphics/SVG/1.1/DTD/svg11.dtd">
<svg version="1.1" id="Capa_1" xmlns="http://www.w3.org/2000/svg" xmlns:xlink="http://www.w3.org/1999/xlink" x="0px" y="0px"
	 viewBox="0 0 125 125" enable-background="new 0 0 125 125" xml:space="preserve">
<g>
	<circle fill="none" stroke="#2F3B46" stroke-width="2.7848" stroke-miterlimit="10" cx="62.5" cy="62.5" r="60"/>
	<g>
		<circle fill="#38454B" cx="61.5" cy="53" r="30.1"/>
		<path fill="#38454B" d="M71.5,90.1H52c-1.4,0-2.6-1.2-2.6-2.6v-7.6c0-1.4,1.2-2.6,2.6-2.6h19.5c1.4,0,2.6,1.2,2.6,2.6v7.6
			C74.1,88.9,72.9,90.1,71.5,90.1z"/>
		<path fill="#38454B" d="M71.5,97.6h-19c-1.4,0-2.6-1.2-2.6-2.6v-0.1c0-1.4,1.2-2.6,2.6-2.6h19c1.4,0,2.6,1.2,2.6,2.6V95
			C74.1,96.4,72.9,97.6,71.5,97.6z"/>
		<path fill="#38454B" d="M66.3,103.4h-7.4c-1.1,0-1.9-0.9-1.9-1.9v0c0-1.1,0.9-1.9,1.9-1.9h7.4c1.1,0,1.9,0.9,1.9,1.9v0
			C68.2,102.5,67.3,103.4,66.3,103.4z"/>
	</g>
</g>
</svg>
