<?xml version="1.0" encoding="utf-8"?>
<!-- Generator: Adobe Illustrator 18.0.0, SVG Export Plug-In . SVG Version: 6.00 Build 0)  -->
<!DOCTYPE svg PUBLIC "-//W3C//DTD SVG 1.1//EN" "http://www.w3.org/Graphics/SVG/1.1/DTD/svg11.dtd">
<svg version="1.1" id="Capa_1" xmlns="http://www.w3.org/2000/svg" xmlns:xlink="http://www.w3.org/1999/xlink" x="0px" y="0px"
	 viewBox="0 0 125 125" enable-background="new 0 0 125 125" xml:space="preserve">
<g>
	<circle fill="none" stroke="#2F3B46" stroke-width="2.7848" stroke-miterlimit="10" cx="62.5" cy="62.5" r="60"/>
	<g>
		<circle fill="#38454B" cx="81" cy="35.7" r="8.8"/>
		<path fill="#38454B" d="M65.7,44.9l-24.4-1.2c-1.6-0.1-2.8-1.5-2.8-3.1v0c0.1-1.6,1.5-2.8,3.1-2.8L66,39.1
			c1.6,0.1,2.8,1.5,2.8,3.1v0C68.7,43.7,67.3,44.9,65.7,44.9z"/>
		<path fill="#38454B" d="M89.7,74.8l-30.3-6.1c-2.2-0.4-3.7-2.6-3.2-4.8l0.1-0.7c0.4-2.2,2.6-3.7,4.8-3.2L91.4,66
			c2.2,0.4,3.7,2.6,3.2,4.8l-0.1,0.7C94.1,73.8,91.9,75.3,89.7,74.8z"/>
		<path fill="#38454B" d="M59.3,89l-26.2,0c-2.1,0-3.8-1.7-3.8-3.8l0-1.3c0-2.1,1.7-3.8,3.8-3.8l26.2,0c2.1,0,3.8,1.7,3.8,3.8l0,1.3
			C63.1,87.3,61.4,89,59.3,89z"/>
		<path fill="#38454B" d="M54.9,86.5L43.5,62.9c-0.9-1.9-0.1-4.2,1.8-5.1l1.2-0.6c1.9-0.9,4.2-0.1,5.1,1.8L63,82.5
			c0.9,1.9,0.1,4.2-1.8,5.1l-1.2,0.6C58.2,89.2,55.9,88.4,54.9,86.5z"/>
		<path fill="#38454B" d="M86.8,57.8l-22-10.5c-1.4-0.7-2.1-2.4-1.4-3.9l0,0c0.7-1.4,2.4-2.1,3.9-1.4l22,10.5
			c1.4,0.7,2.1,2.4,1.4,3.9v0C90,57.8,88.2,58.4,86.8,57.8z"/>
		<path fill="#38454B" d="M72.4,53.6L57.5,67.9c-2.7,2.6-7,2.5-9.6-0.2L46.3,66c-2.6-2.7-2.5-7,0.2-9.6l14.8-14.3
			c2.7-2.6,7-2.5,9.6,0.2l1.6,1.7C75.1,46.7,75.1,51,72.4,53.6z"/>
	</g>
	<g>
		<path fill="#202931" d="M74,96.9h-0.1c-1,0-1.9-0.8-1.9-1.9V80.6c0-1,0.8-1.9,1.9-1.9H74c1,0,1.9,0.8,1.9,1.9v14.5
			C75.9,96.1,75,96.9,74,96.9z"/>
		<polygon fill="#202931" points="62.5,103.3 73.7,93.4 85.2,103.3 		"/>
	</g>
</g>
</svg>
