<?xml version="1.0" encoding="utf-8"?>
<!-- Generator: Adobe Illustrator 18.0.0, SVG Export Plug-In . SVG Version: 6.00 Build 0)  -->
<!DOCTYPE svg PUBLIC "-//W3C//DTD SVG 1.1//EN" "http://www.w3.org/Graphics/SVG/1.1/DTD/svg11.dtd">
<svg version="1.1" id="Capa_1" xmlns="http://www.w3.org/2000/svg" xmlns:xlink="http://www.w3.org/1999/xlink" x="0px" y="0px"
	 viewBox="0 0 125 125" enable-background="new 0 0 125 125" xml:space="preserve">
<g>
	<circle fill="none" stroke="#2F3B46" stroke-width="2.7848" stroke-miterlimit="10" cx="62.5" cy="62.5" r="60"/>
	<g>
		<circle fill="#2F3B46" cx="62.1" cy="44.6" r="14.9"/>
		<path fill="#2F3B46" d="M42.5,70L28,61.4c-2.3-1.4-3.1-4.4-1.7-6.8l0,0c1.4-2.3,4.4-3.1,6.8-1.7l14.4,8.6c2.3,1.4,3.1,4.4,1.7,6.8
			l0,0C47.9,70.6,44.8,71.4,42.5,70z"/>
		<path fill="#2F3B46" d="M25.1,55.8l3.3-16.8c0.5-2.6,3-4.3,5.6-3.8l0.3,0.1c2.6,0.5,4.3,3,3.8,5.6l-3.3,16.8
			c-0.5,2.6-3,4.3-5.6,3.8l-0.3-0.1C26.3,60.9,24.6,58.4,25.1,55.8z"/>
		<path fill="#2F3B46" d="M81.1,69.1l14.4-8.6c2.3-1.4,3.1-4.4,1.7-6.8l0,0c-1.4-2.3-4.4-3.1-6.8-1.7l-14.4,8.6
			c-2.3,1.4-3.1,4.4-1.7,6.8l0,0C75.7,69.7,78.8,70.5,81.1,69.1z"/>
		<path fill="#2F3B46" d="M97.9,55.6l-2.7-16.9c-0.4-2.6-2.9-4.4-5.4-3.9l-0.3,0.1c-2.6,0.4-4.4,2.9-3.9,5.4l2.7,16.9
			c0.4,2.6,2.9,4.4,5.4,3.9L94,61C96.6,60.6,98.3,58.1,97.9,55.6z"/>
		<path fill="#2F3B46" d="M72.2,101.6H51.8c-4.8,0-8.8-4-8.8-8.8V69.8c0-4.8,4-8.8,8.8-8.8h20.5c4.8,0,8.8,4,8.8,8.8v23.1
			C81,97.7,77.1,101.6,72.2,101.6z"/>
	</g>
</g>
</svg>
