<?xml version="1.0" encoding="utf-8"?>
<!-- Generator: Adobe Illustrator 18.0.0, SVG Export Plug-In . SVG Version: 6.00 Build 0)  -->
<!DOCTYPE svg PUBLIC "-//W3C//DTD SVG 1.1//EN" "http://www.w3.org/Graphics/SVG/1.1/DTD/svg11.dtd">
<svg version="1.1" id="Capa_1" xmlns="http://www.w3.org/2000/svg" xmlns:xlink="http://www.w3.org/1999/xlink" x="0px" y="0px"
	 viewBox="0 0 125 125" enable-background="new 0 0 125 125" xml:space="preserve">
<g>
	<circle fill="none" stroke="#2F3B46" stroke-width="2.7848" stroke-miterlimit="10" cx="62.5" cy="62.5" r="60"/>
	<polygon fill="none" stroke="#202931" stroke-width="2.3165" stroke-miterlimit="10" points="28.2,99.7 94.5,99.7 80.1,84.4 
		39.3,84.4 	"/>
	<polygon fill="#FFFFFF" stroke="#38454B" stroke-width="2.4439" stroke-miterlimit="10" points="60.6,92.2 52.5,81.1 52.5,43.7 
		69,43.7 69,81.1 	"/>
	<g>
		<rect x="51.4" y="35.9" fill="#202931" width="18.8" height="4.7"/>
		<path fill="#202931" d="M65.7,40.4h-9.8c-2.5,0-4.5-2-4.5-4.5v0c0-2.5,2-4.5,4.5-4.5h9.8c2.5,0,4.5,2,4.5,4.5v0
			C70.2,38.4,68.2,40.4,65.7,40.4z"/>
	</g>
	<rect x="63.6" y="47.4" fill="#202931" width="2.7" height="30.7"/>
	<rect x="59.2" y="47.4" fill="#202931" width="2.7" height="30.7"/>
</g>
</svg>
