<?xml version="1.0" encoding="utf-8"?>
<!-- Generator: Adobe Illustrator 18.0.0, SVG Export Plug-In . SVG Version: 6.00 Build 0)  -->
<!DOCTYPE svg PUBLIC "-//W3C//DTD SVG 1.1//EN" "http://www.w3.org/Graphics/SVG/1.1/DTD/svg11.dtd">
<svg version="1.1" id="Capa_1" xmlns="http://www.w3.org/2000/svg" xmlns:xlink="http://www.w3.org/1999/xlink" x="0px" y="0px"
	 viewBox="0 0 125 125" enable-background="new 0 0 125 125" xml:space="preserve">
<g>
	<circle fill="none" stroke="#2F3B46" stroke-width="2.7848" stroke-miterlimit="10" cx="62.5" cy="62.5" r="60"/>
	<path fill="#38454B" d="M46.1,34.1c0,0-4.4,31,11.2,49.4h10.3c0,0,15.4-16.3,11.2-49.4C78.7,34.1,62.7,30.6,46.1,34.1z"/>
	<rect x="54.8" y="83.5" fill="#202931" width="15.2" height="3.8"/>
	<rect x="48.2" y="86.3" fill="#202931" width="28.3" height="10.7"/>
	<rect x="45" y="97" fill="#202931" width="34.5" height="5.2"/>
	<path fill="none" stroke="#38454B" stroke-width="6.4979" stroke-miterlimit="10" d="M52.6,68.4c0,0-15.3-10.3-15.2-23.9
		c0,0,3.9-3.4,12.9-3.3"/>
	<path fill="none" stroke="#38454B" stroke-width="6.4979" stroke-miterlimit="10" d="M72.1,68.4c0,0,15.3-10.3,15.2-23.9
		c0,0-3.9-3.4-12.9-3.3"/>
</g>
</svg>
