<svg xmlns="http://www.w3.org/2000/svg" viewBox="0 0 125 125"><circle fill="none" stroke="#2F3B46" stroke-width="2.785" stroke-miterlimit="10" cx="62.5" cy="62.5" r="60"/><g fill="#38454B"><circle cx="81" cy="35.7" r="8.8"/><path d="M65.7 44.9l-24.4-1.2c-1.6-.1-2.8-1.5-2.8-3.1.1-1.6 1.5-2.8 3.1-2.8L66 39.1c1.6.1 2.8 1.5 2.8 3.1-.1 1.5-1.5 2.7-3.1 2.7zm24 29.9l-30.3-6.1c-2.2-.4-3.7-2.6-3.2-4.8l.1-.7c.4-2.2 2.6-3.7 4.8-3.2l30.3 6c2.2.4 3.7 2.6 3.2 4.8l-.1.7c-.4 2.3-2.6 3.8-4.8 3.3zM59.3 89H33.1c-2.1 0-3.8-1.7-3.8-3.8v-1.3c0-2.1 1.7-3.8 3.8-3.8h26.2c2.1 0 3.8 1.7 3.8 3.8v1.3c0 2.1-1.7 3.8-3.8 3.8z"/><path d="M54.9 86.5L43.5 62.9c-.9-1.9-.1-4.2 1.8-5.1l1.2-.6c1.9-.9 4.2-.1 5.1 1.8L63 82.5c.9 1.9.1 4.2-1.8 5.1l-1.2.6c-1.8 1-4.1.2-5.1-1.7zm31.9-28.7l-22-10.5c-1.4-.7-2.1-2.4-1.4-3.9.7-1.4 2.4-2.1 3.9-1.4l22 10.5c1.4.7 2.1 2.4 1.4 3.9-.7 1.4-2.5 2-3.9 1.4z"/><path d="M72.4 53.6L57.5 67.9c-2.7 2.6-7 2.5-9.6-.2L46.3 66c-2.6-2.7-2.5-7 .2-9.6l14.8-14.3c2.7-2.6 7-2.5 9.6.2l1.6 1.7c2.6 2.7 2.6 7-.1 9.6z"/></g><g fill="#202931"><path d="M74 96.9h-.1c-1 0-1.9-.8-1.9-1.9V80.6c0-1 .8-1.9 1.9-1.9h.1c1 0 1.9.8 1.9 1.9v14.5c0 1-.9 1.8-1.9 1.8z"/><path d="M62.5 103.3l11.2-9.9 11.5 9.9z"/></g></svg>