<svg xmlns="http://www.w3.org/2000/svg" viewBox="0 0 125 125"><circle fill="none" stroke="#2F3B46" stroke-width="2.785" stroke-miterlimit="10" cx="62.5" cy="62.5" r="60"/><g fill="#2F3B46"><circle cx="62.1" cy="44.6" r="14.9"/><path d="M42.5 70L28 61.4c-2.3-1.4-3.1-4.4-1.7-6.8 1.4-2.3 4.4-3.1 6.8-1.7l14.4 8.6c2.3 1.4 3.1 4.4 1.7 6.8-1.3 2.3-4.4 3.1-6.7 1.7z"/><path d="M25.1 55.8L28.4 39c.5-2.6 3-4.3 5.6-3.8l.3.1c2.6.5 4.3 3 3.8 5.6l-3.3 16.8c-.5 2.6-3 4.3-5.6 3.8l-.3-.1c-2.6-.5-4.3-3-3.8-5.6zm56 13.3l14.4-8.6c2.3-1.4 3.1-4.4 1.7-6.8-1.4-2.3-4.4-3.1-6.8-1.7L76 60.6c-2.3 1.4-3.1 4.4-1.7 6.8 1.4 2.3 4.5 3.1 6.8 1.7z"/><path d="M97.9 55.6l-2.7-16.9c-.4-2.6-2.9-4.4-5.4-3.9l-.3.1c-2.6.4-4.4 2.9-3.9 5.4l2.7 16.9c.4 2.6 2.9 4.4 5.4 3.9l.3-.1c2.6-.4 4.3-2.9 3.9-5.4zm-25.7 46H51.8c-4.8 0-8.8-4-8.8-8.8v-23c0-4.8 4-8.8 8.8-8.8h20.5c4.8 0 8.8 4 8.8 8.8v23.1c-.1 4.8-4 8.7-8.9 8.7z"/></g></svg>