<svg xmlns="http://www.w3.org/2000/svg" viewBox="0 0 125 125"><circle fill="none" stroke="#2F3B46" stroke-width="2.785" stroke-miterlimit="10" cx="62.5" cy="62.5" r="60"/><path fill="#202931" d="M73.4 65.8c-2.7 2.8-6.5 4.6-10.7 4.6-4 0-7.6-1.6-10.3-4.1-6.3 3.7-10.6 10.6-10.6 18.5 0 1.8.2 3.6.7 5.3 5.3 4.2 12.9 6.8 21.3 6.8 7.8 0 14.8-2.2 20-5.8.6-2 .9-4.1.9-6.3 0-8.2-4.6-15.4-11.3-19z"/><circle fill="#202931" cx="62.7" cy="55.3" r="14"/><path fill="#38454B" d="M49.1 51.8l2.8-11.9h22l2.4 11.9z"/><path fill="#202931" d="M40.1 61.4l.4-5.7h3.8l.3 5.7zM30.5 37.3L63 28.1l31.5 9.2-31.6 10z"/><path fill="#202931" d="M41.6 35.3h1.6v19.2h-1.6z"/><ellipse fill="#202931" cx="42.4" cy="55.3" rx="1.9" ry="2.6"/></svg>