<svg xmlns="http://www.w3.org/2000/svg" viewBox="0 0 125 125"><circle fill="none" stroke="#2F3B46" stroke-width="2.785" stroke-miterlimit="10" cx="62.5" cy="62.5" r="60"/><g fill="#2F3B46"><circle cx="64.7" cy="45" r="14.9"/><path d="M45.1 70.5l-14.4-8.6c-2.3-1.4-3.1-4.4-1.7-6.8 1.4-2.3 4.4-3.1 6.8-1.7L50.1 62c2.3 1.4 3.1 4.4 1.7 6.8-1.3 2.3-4.4 3-6.7 1.7z"/><path d="M27.7 56.2L31 39.4c.5-2.6 3-4.3 5.6-3.8l.3.1c2.6.5 4.3 3 3.8 5.6l-3.3 16.8c-.5 2.6-3 4.3-5.6 3.8l-.3-.1c-2.6-.5-4.3-3-3.8-5.6zM83.7 69.5l14.4-8.6c2.3-1.4 3.1-4.4 1.7-6.8-1.4-2.3-4.4-3.1-6.8-1.7L78.6 61c-2.3 1.4-3.1 4.4-1.7 6.8 1.5 2.4 4.5 3.1 6.8 1.7z"/><path d="M100.5 56l-2.7-17c-.4-2.6-2.9-4.4-5.4-3.9H92c-2.6.4-4.4 2.9-3.9 5.4l2.7 16.9c.4 2.6 2.9 4.4 5.4 3.9l.3-.1c2.7-.2 4.4-2.6 4-5.2zM74.8 102H54.4c-4.8 0-8.8-4-8.8-8.8v-23c0-4.8 4-8.8 8.8-8.8h20.5c4.8 0 8.8 4 8.8 8.8v23.1c-.1 4.8-4 8.7-8.9 8.7z"/></g></svg>