<?xml version="1.0" encoding="utf-8"?>
<!-- Generator: Adobe Illustrator 18.0.0, SVG Export Plug-In . SVG Version: 6.00 Build 0)  -->
<!DOCTYPE svg PUBLIC "-//W3C//DTD SVG 1.1//EN" "http://www.w3.org/Graphics/SVG/1.1/DTD/svg11.dtd">
<svg version="1.1" id="Capa_1" xmlns="http://www.w3.org/2000/svg" xmlns:xlink="http://www.w3.org/1999/xlink" x="0px" y="0px"
	 viewBox="0 0 125 125" enable-background="new 0 0 125 125" xml:space="preserve">
<g>
	<circle fill="none" stroke="#2F3B46" stroke-width="2.7848" stroke-miterlimit="10" cx="62.5" cy="62.5" r="60"/>
	<g>
		<path fill="#38454B" d="M86.2,60.2c-3,3.1-7.1,5-11.8,5c-4.4,0-8.4-1.7-11.3-4.6c-7,4.1-11.7,11.7-11.7,20.4c0,2,0.3,4,0.7,5.9
			c5.8,4.6,14.2,7.5,23.5,7.5c8.6,0,16.3-2.4,22.1-6.4c0.7-2.2,1-4.5,1-7C98.7,72,93.6,64.2,86.2,60.2z"/>
		<circle fill="#2F3B46" cx="74.4" cy="48.6" r="15.5"/>
		<path fill="#5D7079" d="M50.1,68.5c-2.3,2.3-5.4,3.8-8.9,3.8c-3.3,0-6.4-1.3-8.6-3.5c-5.3,3.1-8.9,8.9-8.9,15.5
			c0,1.5,0.2,3,0.6,4.5c4.4,3.5,10.8,5.7,17.8,5.7c6.5,0,12.4-1.9,16.7-4.9c0.5-1.7,0.8-3.4,0.8-5.3C59.6,77.5,55.8,71.5,50.1,68.5z
			"/>
		<circle fill="#5D7079" cx="41.2" cy="59.7" r="11.7"/>
	</g>
</g>
</svg>
