<svg xmlns="http://www.w3.org/2000/svg" viewBox="0 0 125 125"><circle fill="none" stroke="#2F3B46" stroke-width="2.785" stroke-miterlimit="10" cx="62.5" cy="62.5" r="60"/><path fill="#38454B" d="M86.2 60.2c-3 3.1-7.1 5-11.8 5-4.4 0-8.4-1.7-11.3-4.6-7 4.1-11.7 11.7-11.7 20.4 0 2 .3 4 .7 5.9 5.8 4.6 14.2 7.5 23.5 7.5 8.6 0 16.3-2.4 22.1-6.4.7-2.2 1-4.5 1-7 0-9-5.1-16.8-12.5-20.8z"/><circle fill="#2F3B46" cx="74.4" cy="48.6" r="15.5"/><path fill="#5D7079" d="M50.1 68.5c-2.3 2.3-5.4 3.8-8.9 3.8-3.3 0-6.4-1.3-8.6-3.5-5.3 3.1-8.9 8.9-8.9 15.5 0 1.5.2 3 .6 4.5 4.4 3.5 10.8 5.7 17.8 5.7 6.5 0 12.4-1.9 16.7-4.9.5-1.7.8-3.4.8-5.3 0-6.8-3.8-12.8-9.5-15.8z"/><circle fill="#5D7079" cx="41.2" cy="59.7" r="11.7"/></svg>