<svg xmlns="http://www.w3.org/2000/svg" viewBox="0 0 125 125"><circle fill="none" stroke="#2F3B46" stroke-width="2.785" stroke-miterlimit="10" cx="62.5" cy="62.5" r="60"/><g fill="#2F3B46"><circle cx="62.1" cy="44.6" r="14.9"/><path d="M42.5 70L28 61.4c-2.3-1.4-3.1-4.4-1.7-6.7 1.4-2.3 4.4-3.1 6.7-1.7l14.5 8.6c2.3 1.4 3.1 4.4 1.7 6.7-1.3 2.4-4.4 3.1-6.7 1.7z"/><path d="M25.1 55.6l3.2-16.5c.5-2.7 3.1-4.4 5.8-3.9 2.7.5 4.4 3.1 3.9 5.8l-3.2 16.5c-.5 2.7-3.1 4.4-5.8 3.9-2.7-.5-4.4-3.1-3.9-5.8zM81.1 69.1l14.5-8.6c2.3-1.4 3.1-4.4 1.7-6.7-1.4-2.3-4.4-3.1-6.7-1.7l-14.5 8.6c-2.3 1.4-3.1 4.4-1.7 6.7 1.4 2.4 4.4 3.1 6.7 1.7z"/><path d="M97.9 55.4l-2.7-16.6c-.4-2.7-3-4.5-5.6-4.1-2.7.4-4.5 3-4.1 5.6l2.7 16.6c.4 2.7 3 4.5 5.6 4.1 2.7-.4 4.5-2.9 4.1-5.6zM72.2 101.6H51.8c-4.8 0-8.8-4-8.8-8.8v-23c0-4.8 4-8.8 8.8-8.8h20.5c4.8 0 8.8 4 8.8 8.8v23.1c-.1 4.8-4 8.7-8.9 8.7z"/></g></svg>