<?xml version="1.0" encoding="utf-8"?>
<!-- Generator: Adobe Illustrator 18.0.0, SVG Export Plug-In . SVG Version: 6.00 Build 0)  -->
<!DOCTYPE svg PUBLIC "-//W3C//DTD SVG 1.1//EN" "http://www.w3.org/Graphics/SVG/1.1/DTD/svg11.dtd">
<svg version="1.1" id="Capa_1" xmlns="http://www.w3.org/2000/svg" xmlns:xlink="http://www.w3.org/1999/xlink" x="0px" y="0px"
	 viewBox="0 0 125 125" enable-background="new 0 0 125 125" xml:space="preserve">
<g>
	<circle fill="none" stroke="#2F3B46" stroke-width="2.7848" stroke-miterlimit="10" cx="62.5" cy="62.5" r="60"/>
	<circle fill="#2F3B46" cx="69.5" cy="26.3" r="8.4"/>
	<path fill="#2F3B46" d="M54.9,60.5l-4.6-2.3c-1.7-0.8-2.4-2.9-1.5-4.5l9.4-19.1c0.8-1.7,2.9-2.4,4.5-1.5l4.6,2.3
		c1.7,0.8,2.4,2.9,1.5,4.5l-9.4,19.1C58.6,60.6,56.6,61.3,54.9,60.5z"/>
	<path fill="#2F3B46" d="M60.7,38.5l-15.2,7.1c-1.3,0.6-3,0.1-3.6-1.3l0,0c-0.6-1.3-0.1-3,1.3-3.6l15.2-7.1c1.3-0.6,3-0.1,3.6,1.3
		l0,0C62.7,36.3,62.1,37.9,60.7,38.5z"/>
	<path fill="#2F3B46" d="M39.3,55l2.2-11.9c0.2-1.3,1.5-2.1,2.8-1.9l0.7,0.1c1.3,0.2,2.1,1.5,1.9,2.8L44.7,56
		c-0.2,1.3-1.5,2.1-2.8,1.9l-0.7-0.1C39.9,57.5,39.1,56.3,39.3,55z"/>
	<path fill="#2F3B46" d="M55.8,56.5l-2.5,16.9c-0.3,1.8-1.9,3-3.7,2.8L48.6,76c-1.8-0.3-3-1.9-2.8-3.7l2.5-16.9
		c0.3-1.8,1.9-3,3.7-2.8l0.9,0.1C54.8,53,56,54.7,55.8,56.5z"/>
	<path fill="#2F3B46" d="M58.3,55.2l9.1,14.4c1,1.5,0.5,3.6-1,4.5l-0.7,0.5c-1.5,1-3.6,0.5-4.5-1L52,59.1c-1-1.5-0.5-3.6,1-4.5
		l0.7-0.5C55.3,53.2,57.3,53.7,58.3,55.2z"/>
	<path fill="#2F3B46" d="M67.7,69.8l9.1,14.4c1,1.5,0.5,3.6-1,4.5l-0.7,0.5c-1.5,1-3.6,0.5-4.5-1l-9.1-14.4c-1-1.5-0.5-3.6,1-4.5
		l0.7-0.5C64.8,67.8,66.8,68.2,67.7,69.8z"/>
	<path fill="#2F3B46" d="M52.4,76L41.5,89.1c-1.2,1.4-3.2,1.6-4.6,0.4l-0.7-0.6c-1.4-1.2-1.6-3.2-0.4-4.6l10.9-13.1
		c1.2-1.4,3.2-1.6,4.6-0.4l0.7,0.6C53.4,72.5,53.6,74.6,52.4,76z"/>
	<path fill="#2F3B46" d="M68.5,36.3l6,11.2c0.6,1.2,0.2,2.7-1,3.3L73,51.1c-1.2,0.6-2.7,0.2-3.3-1l-6-11.2c-0.6-1.2-0.2-2.7,1-3.3
		l0.5-0.3C66.3,34.7,67.8,35.2,68.5,36.3z"/>
	<path fill="#2F3B46" d="M83.9,51.9l-12.1-0.5c-1.3-0.1-2.3-1.2-2.3-2.5l0-0.7c0.1-1.3,1.2-2.3,2.5-2.3l12.1,0.5
		c1.3,0.1,2.3,1.2,2.3,2.5l0,0.7C86.3,50.9,85.2,51.9,83.9,51.9z"/>
	<path fill="none" stroke="#2F3B46" stroke-width="1.8565" stroke-miterlimit="10" d="M4.8,79c0,0,29,25.3,115.1,1.2"/>
</g>
</svg>
