<svg xmlns="http://www.w3.org/2000/svg" viewBox="0 0 125 125"><circle fill="none" stroke="#2F3B46" stroke-width="2.785" stroke-miterlimit="10" cx="62.5" cy="62.5" r="60"/><circle fill="#2F3B46" cx="69.5" cy="26.3" r="8.4"/><path fill="#2F3B46" d="M54.9 60.5l-4.6-2.3c-1.7-.8-2.4-2.9-1.5-4.5l9.4-19.1c.8-1.7 2.9-2.4 4.5-1.5l4.6 2.3c1.7.8 2.4 2.9 1.5 4.5L59.4 59c-.8 1.6-2.8 2.3-4.5 1.5z"/><path fill="#2F3B46" d="M60.7 38.5l-15.2 7.1c-1.3.6-3 .1-3.6-1.3-.6-1.3-.1-3 1.3-3.6l15.2-7.1c1.3-.6 3-.1 3.6 1.3.7 1.4.1 3-1.3 3.6z"/><path fill="#2F3B46" d="M39.3 55l2.2-11.9c.2-1.3 1.5-2.1 2.8-1.9l.7.1c1.3.2 2.1 1.5 1.9 2.8L44.7 56c-.2 1.3-1.5 2.1-2.8 1.9l-.7-.1c-1.3-.3-2.1-1.5-1.9-2.8zM55.8 56.5l-2.5 16.9c-.3 1.8-1.9 3-3.7 2.8l-1-.2c-1.8-.3-3-1.9-2.8-3.7l2.5-16.9c.3-1.8 1.9-3 3.7-2.8l.9.1c1.9.3 3.1 2 2.9 3.8z"/><path fill="#2F3B46" d="M58.3 55.2l9.1 14.4c1 1.5.5 3.6-1 4.5l-.7.5c-1.5 1-3.6.5-4.5-1L52 59.1c-1-1.5-.5-3.6 1-4.5l.7-.5c1.6-.9 3.6-.4 4.6 1.1z"/><path fill="#2F3B46" d="M67.7 69.8l9.1 14.4c1 1.5.5 3.6-1 4.5l-.7.5c-1.5 1-3.6.5-4.5-1l-9.1-14.4c-1-1.5-.5-3.6 1-4.5l.7-.5c1.6-1 3.6-.6 4.5 1zM52.4 76L41.5 89.1c-1.2 1.4-3.2 1.6-4.6.4l-.7-.6c-1.4-1.2-1.6-3.2-.4-4.6l10.9-13.1c1.2-1.4 3.2-1.6 4.6-.4l.7.6c1.4 1.1 1.6 3.2.4 4.6zM68.5 36.3l6 11.2c.6 1.2.2 2.7-1 3.3l-.5.3c-1.2.6-2.7.2-3.3-1l-6-11.2c-.6-1.2-.2-2.7 1-3.3l.5-.3c1.1-.6 2.6-.1 3.3 1z"/><path fill="#2F3B46" d="M83.9 51.9l-12.1-.5c-1.3-.1-2.3-1.2-2.3-2.5v-.7c.1-1.3 1.2-2.3 2.5-2.3l12.1.5c1.3.1 2.3 1.2 2.3 2.5v.7c-.1 1.3-1.2 2.3-2.5 2.3z"/><path fill="none" stroke="#2F3B46" stroke-width="1.857" stroke-miterlimit="10" d="M4.8 79s29 25.3 115.1 1.2"/></svg>